<svg width="16" height="16" viewBox="0 0 16 16" fill="none" xmlns="http://www.w3.org/2000/svg">
<rect width="16" height="16" rx="4" fill="#FFFAFA"/>
<path d="M1.47266 8.35742V7.88477C1.47266 6.30566 2.41797 5.19922 4.00781 5.19922C5.44727 5.19922 6.32275 6.1123 6.35498 7.20801H5.0498C4.97461 6.73535 4.59863 6.32715 4.07227 6.32715C3.33643 6.32715 2.89062 6.92871 2.89062 7.90088V8.35205C2.89062 9.35645 3.34717 9.96875 4.07764 9.96875C4.70605 9.96875 5.01221 9.5874 5.07666 9.15234H6.38184C6.26367 10.4253 5.35059 11.1021 4.00244 11.1021C2.42871 11.1021 1.47266 10.0171 1.47266 8.35742Z" fill="black"/>
<path d="M9.27471 11.1021C7.71172 11.1021 6.69121 10.1245 6.69121 8.37891V7.85791C6.69121 6.1875 7.71709 5.19922 9.21562 5.19922C10.7679 5.19922 11.7293 6.25732 11.7293 7.89551V8.4541H8.07695V8.60986C8.07695 9.47461 8.56572 10.0225 9.28545 10.0225C9.84941 10.0225 10.2469 9.74316 10.365 9.28125H11.6756C11.5413 10.1943 10.8001 11.1021 9.27471 11.1021ZM8.07695 7.55713H10.3597V7.54639C10.3597 6.81055 9.91387 6.25195 9.22637 6.25195C8.5335 6.25195 8.07695 6.81592 8.07695 7.54639V7.55713ZM12.2428 10.2803C12.2428 9.82373 12.6187 9.44775 13.0753 9.44775C13.5318 9.44775 13.9078 9.82373 13.9078 10.2803C13.9078 10.7422 13.5318 11.1182 13.0753 11.1182C12.6187 11.1182 12.2428 10.7422 12.2428 10.2803Z" fill="#708090"/>
</svg>
